<?xml version="1.0" standalone="no"?>
<!DOCTYPE svg PUBLIC "-//W3C//DTD SVG 20010904//EN"
 "http://www.w3.org/TR/2001/REC-SVG-20010904/DTD/svg10.dtd">
<svg version="1.0" xmlns="http://www.w3.org/2000/svg"
 width="512.000000pt" height="512.000000pt" viewBox="0 0 512.000000 512.000000"
 preserveAspectRatio="xMidYMid meet">
<metadata>
Created by potrace 1.11, written by Peter Selinger 2001-2013
</metadata>
<g transform="translate(0.000000,512.000000) scale(0.100000,-0.100000)"
fill="#000000" stroke="none">
<path d="M1670 3110 c0 -220 -2 -400 -5 -400 -2 0 -33 28 -67 63 -135 133
-333 192 -518 153 -206 -44 -337 -178 -402 -413 -19 -68 -22 -103 -22 -278 0
-175 3 -210 22 -278 31 -114 79 -203 146 -275 103 -110 206 -153 366 -154 176
-1 280 41 403 164 l77 77 0 -109 0 -110 60 0 60 0 0 980 0 980 -60 0 -60 0 0
-400z m-258 -323 c97 -48 175 -124 219 -214 l34 -68 4 -220 c5 -324 -10 -393
-107 -498 -59 -63 -131 -110 -213 -138 -53 -18 -79 -20 -154 -16 -150 8 -250
62 -321 173 -94 147 -127 420 -78 655 38 189 121 297 263 347 56 19 82 22 172
20 99 -3 110 -6 181 -41z"/>
<path d="M2230 2530 l0 -980 60 0 60 0 0 109 0 109 78 -78 c120 -120 227 -163
402 -162 258 1 434 152 512 437 18 68 22 107 22 265 1 159 -2 197 -21 272 -45
176 -145 318 -266 378 -220 108 -488 62 -659 -112 l-68 -68 0 405 0 405 -60 0
-60 0 0 -980z m711 284 c111 -33 186 -101 238 -217 48 -107 56 -156 56 -362 0
-206 -8 -256 -55 -360 -40 -87 -83 -141 -145 -180 -130 -84 -317 -87 -455 -7
-76 43 -164 136 -196 205 l-29 62 -3 247 c-4 286 4 338 66 428 49 71 157 152
236 179 76 25 209 28 287 5z"/>
<path d="M3700 2230 l0 -680 64 0 64 0 5 378 c5 414 9 447 68 564 38 76 134
177 209 223 77 46 179 75 288 82 l92 6 0 55 0 55 -102 -6 c-223 -12 -402 -108
-510 -274 l-43 -64 -3 170 -2 171 -65 0 -65 0 0 -680z"/>
</g>
</svg>
